<svg xmlns="http://www.w3.org/2000/svg" width="440" height="66" viewBox="0 0 440 66" role="img" aria-label="sc.is-a.dev: my live dashboard"><title>sc.is-a.dev: my live dashboard</title><defs><path id="m0" d="M495 33Q339 33 226 -30Q114 -92 41 -225Q41 -225 41 -225Q41 -225 41 -225L205 -323Q205 -323 205 -323Q205 -323 205 -323Q255 -230 330 -187Q405 -144 507 -144Q599 -144 650 -178Q702 -212 702 -279Q702 -330 656 -364Q610 -399 457 -436Q259 -485 170 -558Q81 -632 81 -751Q81 -891 198 -974Q314 -1056 486 -1056Q623 -1056 724 -1004Q826 -952 890 -848Q890 -848 890 -848Q890 -848 890 -848L732 -751Q732 -751 732 -751Q732 -751 732 -751Q690 -816 628 -848Q565 -879 483 -879Q403 -879 348 -847Q292 -815 292 -759Q292 -709 336 -676Q380 -643 545 -605Q750 -557 832 -480Q914 -402 914 -289Q914 -143 798 -55Q682 33 495 33Z"/><path id="m1" d="M594 33Q365 33 216 -121Q67 -275 67 -515Q67 -754 216 -905Q366 -1056 594 -1056Q756 -1056 872 -982Q987 -907 1048 -762Q1048 -762 1048 -762Q1048 -762 1048 -762L863 -687Q863 -687 863 -687Q863 -687 863 -687Q820 -780 754 -823Q687 -866 592 -866Q463 -866 372 -770Q280 -673 280 -515Q280 -357 370 -257Q461 -157 591 -157Q688 -157 758 -202Q828 -246 872 -338Q872 -338 872 -338Q872 -338 872 -338L1056 -264Q1056 -264 1056 -264Q1056 -264 1056 -264Q986 -111 869 -39Q752 33 594 33Z"/><path id="m2" d="M252 14Q189 14 146 -30Q103 -73 103 -136Q103 -197 146 -240Q189 -283 252 -283Q315 -283 358 -240Q402 -197 402 -136Q402 -73 358 -30Q315 14 252 14Z"/><path id="m3" d="M137 0Q137 0 137 0Q137 0 137 0V-1023Q137 -1023 137 -1023Q137 -1023 137 -1023H354Q354 -1023 354 -1023Q354 -1023 354 -1023V0Q354 0 354 0Q354 0 354 0ZM246 -1218Q190 -1218 150 -1258Q110 -1297 110 -1353Q110 -1410 150 -1448Q190 -1486 246 -1486Q304 -1486 342 -1448Q380 -1410 380 -1353Q380 -1297 342 -1258Q304 -1218 246 -1218Z"/><path id="m4" d="M38 -570Q38 -570 38 -570Q38 -570 38 -570V-753Q38 -753 38 -753Q38 -753 38 -753H632Q632 -753 632 -753Q632 -753 632 -753V-570Q632 -570 632 -570Q632 -570 632 -570Z"/><path id="m5" d="M437 33Q270 33 167 -60Q64 -153 64 -303Q64 -462 184 -555Q304 -648 495 -648Q579 -648 656 -632Q734 -615 782 -591V-650Q782 -755 710 -818Q638 -880 521 -880Q429 -880 361 -846Q293 -813 230 -743Q230 -743 230 -743Q230 -743 230 -743L100 -863Q100 -863 100 -863Q100 -863 100 -863Q203 -969 302 -1012Q402 -1055 537 -1055Q751 -1055 873 -948Q995 -840 995 -648V0Q995 0 995 0Q995 0 995 0H782Q782 0 782 0Q782 0 782 0V-239L842 -149H776Q732 -70 641 -18Q550 33 437 33ZM491 -143Q615 -143 698 -228Q782 -312 782 -434V-436Q737 -466 672 -482Q608 -499 538 -499Q421 -499 351 -452Q281 -406 281 -316Q281 -237 340 -190Q399 -143 491 -143Z"/><path id="m6" d="M551 33Q342 33 204 -118Q67 -270 67 -511Q67 -750 206 -902Q346 -1054 556 -1054Q662 -1054 752 -1006Q841 -959 886 -882H893V-1432Q893 -1432 893 -1432Q893 -1432 893 -1432H1109Q1109 -1432 1109 -1432Q1109 -1432 1109 -1432V0Q1109 0 1109 0Q1109 0 1109 0H901Q901 0 901 0Q901 0 901 0V-181L924 -141H895Q847 -62 754 -14Q661 33 551 33ZM590 -155Q721 -155 810 -256Q900 -356 900 -512Q900 -668 810 -766Q719 -864 590 -864Q461 -864 370 -766Q280 -668 280 -511Q280 -356 370 -256Q459 -155 590 -155Z"/><path id="m7" d="M587 33Q356 33 212 -120Q67 -272 67 -511Q67 -747 210 -901Q354 -1055 580 -1055Q799 -1055 936 -910Q1074 -765 1074 -531Q1074 -509 1072 -496Q1071 -482 1068 -457Q1068 -457 1068 -457Q1068 -457 1068 -457H182V-627H856Q845 -732 772 -802Q700 -872 579 -872Q447 -872 364 -776Q282 -680 282 -516Q282 -346 374 -246Q466 -145 608 -145Q702 -145 772 -186Q841 -226 900 -316Q900 -316 900 -316Q900 -316 900 -316L1050 -218Q1050 -218 1050 -218Q1050 -218 1050 -218Q977 -92 864 -30Q751 33 587 33Z"/><path id="m8" d="M420 0Q420 0 420 0Q420 0 420 0L8 -1023Q8 -1023 8 -1023Q8 -1023 8 -1023H237Q237 -1023 237 -1023Q237 -1023 237 -1023L506 -309L530 -239H537L563 -310L833 -1023Q833 -1023 833 -1023Q833 -1023 833 -1023H1056Q1056 -1023 1056 -1023Q1056 -1023 1056 -1023L639 0Q639 0 639 0Q639 0 639 0Z"/><path id="r9" d="M126 0Q126 0 126 0Q126 0 126 0V-1020Q126 -1020 126 -1020Q126 -1020 126 -1020H288Q288 -1020 288 -1020Q288 -1020 288 -1020V-850L271 -870H294Q338 -950 428 -1001Q518 -1052 614 -1052Q724 -1052 807 -999Q890 -946 928 -854Q984 -950 1075 -1001Q1166 -1052 1278 -1052Q1450 -1052 1541 -948Q1632 -844 1632 -654V0Q1632 0 1632 0Q1632 0 1632 0H1464Q1464 0 1464 0Q1464 0 1464 0V-628Q1464 -766 1408 -832Q1352 -898 1234 -898Q1120 -898 1042 -804Q964 -710 964 -576V0Q964 0 964 0Q964 0 964 0H794Q794 0 794 0Q794 0 794 0V-626Q794 -764 738 -831Q682 -898 566 -898Q452 -898 374 -802Q296 -706 296 -572V0Q296 0 296 0Q296 0 296 0Z"/><path id="r10" d="M207 432Q207 432 207 432Q207 432 207 432L464 -128L470 0L13 -1020Q13 -1020 13 -1020Q13 -1020 13 -1020H197Q197 -1020 197 -1020Q197 -1020 197 -1020L493 -332L518 -262H524L551 -334L829 -1020Q829 -1020 829 -1020Q829 -1020 829 -1020H1012Q1012 -1020 1012 -1020Q1012 -1020 1012 -1020L384 432Q384 432 384 432Q384 432 384 432Z"/><path id="r12" d="M126 0Q126 0 126 0Q126 0 126 0V-1432Q126 -1432 126 -1432Q126 -1432 126 -1432H296Q296 -1432 296 -1432Q296 -1432 296 -1432V0Q296 0 296 0Q296 0 296 0Z"/><path id="r13" d="M141 0Q141 0 141 0Q141 0 141 0V-1020Q141 -1020 141 -1020Q141 -1020 141 -1020H311Q311 -1020 311 -1020Q311 -1020 311 -1020V0Q311 0 311 0Q311 0 311 0ZM226 -1232Q179 -1232 145 -1266Q111 -1300 111 -1347Q111 -1396 145 -1428Q179 -1460 226 -1460Q275 -1460 307 -1428Q339 -1396 339 -1347Q339 -1300 307 -1266Q275 -1232 226 -1232Z"/><path id="r14" d="M425 0Q425 0 425 0Q425 0 425 0L13 -1020Q13 -1020 13 -1020Q13 -1020 13 -1020H196Q196 -1020 196 -1020Q196 -1020 196 -1020L489 -258L511 -200H517L541 -260L836 -1020Q836 -1020 836 -1020Q836 -1020 836 -1020H1014Q1014 -1020 1014 -1020Q1014 -1020 1014 -1020L599 0Q599 0 599 0Q599 0 599 0Z"/><path id="r15" d="M580 32Q358 32 215 -121Q72 -274 72 -512Q72 -745 212 -898Q352 -1052 566 -1052Q786 -1052 919 -908Q1052 -763 1052 -534Q1052 -516 1051 -506Q1050 -497 1048 -478Q1048 -478 1048 -478Q1048 -478 1048 -478H172V-618H874Q864 -736 783 -817Q702 -898 566 -898Q422 -898 332 -793Q242 -688 242 -512Q242 -334 342 -228Q441 -122 589 -122Q687 -122 757 -164Q827 -206 888 -306Q888 -306 888 -306Q888 -306 888 -306L1031 -236Q1031 -236 1031 -236Q1031 -236 1031 -236Q967 -100 854 -34Q741 32 580 32Z"/><path id="r16" d="M560 32Q350 32 211 -121Q72 -274 72 -510Q72 -747 212 -898Q352 -1050 560 -1050Q670 -1050 762 -999Q855 -948 902 -866H908V-1432Q908 -1432 908 -1432Q908 -1432 908 -1432H1078Q1078 -1432 1078 -1432Q1078 -1432 1078 -1432V0Q1078 0 1078 0Q1078 0 1078 0H916Q916 0 916 0Q916 0 916 0V-188L936 -148H910Q860 -66 765 -17Q670 32 560 32ZM578 -120Q720 -120 818 -230Q916 -340 916 -511Q916 -682 817 -789Q718 -896 578 -896Q438 -896 339 -789Q240 -682 240 -510Q240 -340 338 -230Q436 -120 578 -120Z"/><path id="r17" d="M452 32Q282 32 175 -64Q68 -161 68 -313Q68 -466 188 -559Q309 -652 498 -652Q582 -652 663 -633Q744 -614 790 -586V-648Q790 -760 711 -830Q632 -900 508 -900Q419 -900 357 -868Q295 -835 234 -762Q234 -762 234 -762Q234 -762 234 -762L105 -858Q105 -858 105 -858Q105 -858 105 -858Q200 -968 289 -1010Q378 -1052 508 -1052Q714 -1052 833 -943Q952 -834 952 -646V0Q952 0 952 0Q952 0 952 0H790Q790 0 790 0Q790 0 790 0V-247L850 -147H784Q736 -67 646 -18Q556 32 452 32ZM468 -119Q601 -119 696 -213Q790 -307 790 -442Q740 -476 670 -495Q600 -514 524 -514Q394 -514 318 -463Q242 -412 242 -310Q242 -225 306 -172Q370 -119 468 -119Z"/><path id="r18" d="M482 32Q328 32 218 -35Q108 -102 46 -242Q46 -242 46 -242Q46 -242 46 -242L199 -310Q199 -310 199 -310Q199 -310 199 -310Q244 -211 318 -164Q392 -118 494 -118Q594 -118 651 -157Q708 -196 708 -272Q708 -329 659 -368Q610 -408 459 -445Q260 -494 171 -566Q82 -638 82 -757Q82 -891 196 -972Q309 -1052 472 -1052Q609 -1052 706 -996Q804 -940 855 -833Q855 -833 855 -833Q855 -833 855 -833L707 -765Q707 -765 707 -765Q707 -765 707 -765Q672 -834 612 -868Q551 -901 467 -901Q379 -901 317 -864Q255 -827 255 -764Q255 -707 301 -670Q347 -632 515 -593Q724 -544 802 -467Q881 -390 881 -281Q881 -138 770 -53Q658 32 482 32Z"/><path id="r19" d="M126 0Q126 0 126 0Q126 0 126 0V-1432Q126 -1432 126 -1432Q126 -1432 126 -1432H296Q296 -1432 296 -1432Q296 -1432 296 -1432V-870H302Q346 -950 434 -1001Q522 -1052 626 -1052Q807 -1052 906 -946Q1004 -840 1004 -654V0Q1004 0 1004 0Q1004 0 1004 0H834Q834 0 834 0Q834 0 834 0V-628Q834 -758 770 -828Q705 -898 586 -898Q468 -898 382 -798Q296 -698 296 -568V0Q296 0 296 0Q296 0 296 0Z"/><path id="r20" d="M644 32Q534 32 438 -19Q342 -70 294 -150H248L288 -200V0Q288 0 288 0Q288 0 288 0H126Q126 0 126 0Q126 0 126 0V-1432Q126 -1432 126 -1432Q126 -1432 126 -1432H296Q296 -1432 296 -1432Q296 -1432 296 -1432V-868H302Q350 -950 442 -1001Q534 -1052 644 -1052Q852 -1052 992 -902Q1132 -751 1132 -513Q1132 -276 993 -122Q854 32 644 32ZM626 -122Q768 -122 865 -232Q962 -342 962 -513Q962 -684 864 -791Q766 -898 626 -898Q486 -898 387 -792Q288 -685 288 -514Q288 -342 386 -232Q484 -122 626 -122Z"/><path id="r21" d="M596 32Q370 32 221 -123Q72 -278 72 -511Q72 -748 222 -900Q371 -1052 596 -1052Q820 -1052 970 -898Q1120 -745 1120 -511Q1120 -278 972 -123Q823 32 596 32ZM596 -122Q746 -122 848 -231Q950 -340 950 -511Q950 -685 847 -792Q744 -898 596 -898Q446 -898 344 -791Q241 -684 241 -511Q241 -340 342 -231Q444 -122 596 -122Z"/><path id="r22" d="M126 0Q126 0 126 0Q126 0 126 0V-1020Q126 -1020 126 -1020Q126 -1020 126 -1020H288Q288 -1020 288 -1020Q288 -1020 288 -1020V-836L261 -856H294Q322 -938 408 -995Q494 -1052 586 -1052Q612 -1052 640 -1048Q669 -1044 712 -1031Q712 -1031 712 -1031Q712 -1031 712 -1031V-851Q712 -851 712 -851Q712 -851 712 -851Q650 -869 618 -874Q587 -878 568 -878Q456 -878 376 -789Q296 -700 296 -574V0Q296 0 296 0Q296 0 296 0Z"/></defs><path fill="#1e1b1b" d="M0 0H440V66H0V0Z"/><path fill="#2d292a" d="M42 0H417A18 18 0 0 1 435 18V60A4 4 0 0 1 431 64H28A4 4 0 0 1 24 60V18A18 18 0 0 1 42 0Z"/><rect x="40" y="12" width="40" height="40" rx="12" fill="#723524"/><path fill="#ffdbd2" transform="translate(49.0 43.0) scale(0.02292)" d="M324-111.5Q251-143 197-197t-85.5-127Q80-397 80-480t31.5-156Q143-709 197-763t127-85.5Q397-880 480-880t156 31.5Q709-817 763-763t85.5 127Q880-563 880-480t-31.5 156Q817-251 763-197t-127 85.5Q563-80 480-80t-156-31.5ZM440-162v-78q-33 0-56.5-23.5T360-320v-40L168-552q-3 18-5.5 36t-2.5 36q0 121 79.5 212T440-162Zm276-102q41-45 62.5-100.5T800-480q0-98-54.5-179T600-776v16q0 33-23.5 56.5T520-680h-80v80q0 17-11.5 28.5T400-560h-80v80h240q17 0 28.5 11.5T600-440v120h40q26 0 47 15.5t29 40.5Z"/><g fill="#e8e1e1" transform="translate(96.0 29.0) scale(0.00800)"><use href="#m0" x="0"/><use href="#m1" x="971"/><use href="#m2" x="2076"/><use href="#m3" x="2581"/><use href="#m0" x="3072"/><use href="#m4" x="4043"/><use href="#m5" x="4713"/><use href="#m2" x="5824"/><use href="#m6" x="6311"/><use href="#m7" x="7544"/><use href="#m8" x="8657"/></g><g fill="#d0c3c5" transform="translate(96.0 48.0) scale(0.00655)"><use href="#r9" x="0"/><use href="#r10" x="1715"/><use href="#r12" x="3191"/><use href="#r13" x="3613"/><use href="#r14" x="4065"/><use href="#r15" x="5040"/><use href="#r16" x="6616"/><use href="#r17" x="7820"/><use href="#r18" x="8890"/><use href="#r19" x="9833"/><use href="#r20" x="10955"/><use href="#r21" x="12159"/><use href="#r17" x="13351"/><use href="#r22" x="14421"/><use href="#r16" x="15119"/></g><path fill="#d0c3c5" transform="translate(395.0 44.0) scale(0.02500)" d="M200-120q-33 0-56.5-23.5T120-200v-560q0-33 23.5-56.5T200-840h240q17 0 28.5 11.5T480-800q0 17-11.5 28.5T440-760H200v560h560v-240q0-17 11.5-28.5T800-480q17 0 28.5 11.5T840-440v240q0 33-23.5 56.5T760-120H200Zm560-584L416-360q-11 11-28 11t-28-11q-11-11-11-28t11-28l344-344H600q-17 0-28.5-11.5T560-800q0-17 11.5-28.5T600-840h200q17 0 28.5 11.5T840-800v200q0 17-11.5 28.5T800-560q-17 0-28.5-11.5T760-600v-104Z"/></svg>
