<svg xmlns="http://www.w3.org/2000/svg" width="440" height="253" viewBox="0 0 440 253" role="img" aria-label="beam-share: terminal ui for peer-to-peer file sharing on your local network"><title>beam-share: terminal ui for peer-to-peer file sharing on your local network</title><defs><path id="r0" d="M644 32Q534 32 438 -19Q342 -70 294 -150H248L288 -200V0Q288 0 288 0Q288 0 288 0H126Q126 0 126 0Q126 0 126 0V-1432Q126 -1432 126 -1432Q126 -1432 126 -1432H296Q296 -1432 296 -1432Q296 -1432 296 -1432V-868H302Q350 -950 442 -1001Q534 -1052 644 -1052Q852 -1052 992 -902Q1132 -751 1132 -513Q1132 -276 993 -122Q854 32 644 32ZM626 -122Q768 -122 865 -232Q962 -342 962 -513Q962 -684 864 -791Q766 -898 626 -898Q486 -898 387 -792Q288 -685 288 -514Q288 -342 386 -232Q484 -122 626 -122Z"/><path id="r1" d="M580 32Q358 32 215 -121Q72 -274 72 -512Q72 -745 212 -898Q352 -1052 566 -1052Q786 -1052 919 -908Q1052 -763 1052 -534Q1052 -516 1051 -506Q1050 -497 1048 -478Q1048 -478 1048 -478Q1048 -478 1048 -478H172V-618H874Q864 -736 783 -817Q702 -898 566 -898Q422 -898 332 -793Q242 -688 242 -512Q242 -334 342 -228Q441 -122 589 -122Q687 -122 757 -164Q827 -206 888 -306Q888 -306 888 -306Q888 -306 888 -306L1031 -236Q1031 -236 1031 -236Q1031 -236 1031 -236Q967 -100 854 -34Q741 32 580 32Z"/><path id="r2" d="M452 32Q282 32 175 -64Q68 -161 68 -313Q68 -466 188 -559Q309 -652 498 -652Q582 -652 663 -633Q744 -614 790 -586V-648Q790 -760 711 -830Q632 -900 508 -900Q419 -900 357 -868Q295 -835 234 -762Q234 -762 234 -762Q234 -762 234 -762L105 -858Q105 -858 105 -858Q105 -858 105 -858Q200 -968 289 -1010Q378 -1052 508 -1052Q714 -1052 833 -943Q952 -834 952 -646V0Q952 0 952 0Q952 0 952 0H790Q790 0 790 0Q790 0 790 0V-247L850 -147H784Q736 -67 646 -18Q556 32 452 32ZM468 -119Q601 -119 696 -213Q790 -307 790 -442Q740 -476 670 -495Q600 -514 524 -514Q394 -514 318 -463Q242 -412 242 -310Q242 -225 306 -172Q370 -119 468 -119Z"/><path id="r3" d="M126 0Q126 0 126 0Q126 0 126 0V-1020Q126 -1020 126 -1020Q126 -1020 126 -1020H288Q288 -1020 288 -1020Q288 -1020 288 -1020V-850L271 -870H294Q338 -950 428 -1001Q518 -1052 614 -1052Q724 -1052 807 -999Q890 -946 928 -854Q984 -950 1075 -1001Q1166 -1052 1278 -1052Q1450 -1052 1541 -948Q1632 -844 1632 -654V0Q1632 0 1632 0Q1632 0 1632 0H1464Q1464 0 1464 0Q1464 0 1464 0V-628Q1464 -766 1408 -832Q1352 -898 1234 -898Q1120 -898 1042 -804Q964 -710 964 -576V0Q964 0 964 0Q964 0 964 0H794Q794 0 794 0Q794 0 794 0V-626Q794 -764 738 -831Q682 -898 566 -898Q452 -898 374 -802Q296 -706 296 -572V0Q296 0 296 0Q296 0 296 0Z"/><path id="r4" d="M44 -590Q44 -590 44 -590Q44 -590 44 -590V-730Q44 -730 44 -730Q44 -730 44 -730H631Q631 -730 631 -730Q631 -730 631 -730V-590Q631 -590 631 -590Q631 -590 631 -590Z"/><path id="r5" d="M482 32Q328 32 218 -35Q108 -102 46 -242Q46 -242 46 -242Q46 -242 46 -242L199 -310Q199 -310 199 -310Q199 -310 199 -310Q244 -211 318 -164Q392 -118 494 -118Q594 -118 651 -157Q708 -196 708 -272Q708 -329 659 -368Q610 -408 459 -445Q260 -494 171 -566Q82 -638 82 -757Q82 -891 196 -972Q309 -1052 472 -1052Q609 -1052 706 -996Q804 -940 855 -833Q855 -833 855 -833Q855 -833 855 -833L707 -765Q707 -765 707 -765Q707 -765 707 -765Q672 -834 612 -868Q551 -901 467 -901Q379 -901 317 -864Q255 -827 255 -764Q255 -707 301 -670Q347 -632 515 -593Q724 -544 802 -467Q881 -390 881 -281Q881 -138 770 -53Q658 32 482 32Z"/><path id="r6" d="M126 0Q126 0 126 0Q126 0 126 0V-1432Q126 -1432 126 -1432Q126 -1432 126 -1432H296Q296 -1432 296 -1432Q296 -1432 296 -1432V-870H302Q346 -950 434 -1001Q522 -1052 626 -1052Q807 -1052 906 -946Q1004 -840 1004 -654V0Q1004 0 1004 0Q1004 0 1004 0H834Q834 0 834 0Q834 0 834 0V-628Q834 -758 770 -828Q705 -898 586 -898Q468 -898 382 -798Q296 -698 296 -568V0Q296 0 296 0Q296 0 296 0Z"/><path id="r7" d="M126 0Q126 0 126 0Q126 0 126 0V-1020Q126 -1020 126 -1020Q126 -1020 126 -1020H288Q288 -1020 288 -1020Q288 -1020 288 -1020V-836L261 -856H294Q322 -938 408 -995Q494 -1052 586 -1052Q612 -1052 640 -1048Q669 -1044 712 -1031Q712 -1031 712 -1031Q712 -1031 712 -1031V-851Q712 -851 712 -851Q712 -851 712 -851Q650 -869 618 -874Q587 -878 568 -878Q456 -878 376 -789Q296 -700 296 -574V0Q296 0 296 0Q296 0 296 0Z"/><path id="r8" d="M510 32Q387 32 310 -44Q234 -121 234 -251V-1308Q234 -1308 234 -1308Q234 -1308 234 -1308H404Q404 -1308 404 -1308Q404 -1308 404 -1308V-293Q404 -207 438 -166Q472 -125 539 -125Q563 -125 592 -132Q622 -138 658 -152Q658 -152 658 -152Q658 -152 658 -152V6Q658 6 658 6Q658 6 658 6Q617 20 583 26Q549 32 510 32ZM56 -866Q56 -866 56 -866Q56 -866 56 -866V-1020Q56 -1020 56 -1020Q56 -1020 56 -1020H654Q654 -1020 654 -1020Q654 -1020 654 -1020V-866Q654 -866 654 -866Q654 -866 654 -866Z"/><path id="r9" d="M141 0Q141 0 141 0Q141 0 141 0V-1020Q141 -1020 141 -1020Q141 -1020 141 -1020H311Q311 -1020 311 -1020Q311 -1020 311 -1020V0Q311 0 311 0Q311 0 311 0ZM226 -1232Q179 -1232 145 -1266Q111 -1300 111 -1347Q111 -1396 145 -1428Q179 -1460 226 -1460Q275 -1460 307 -1428Q339 -1396 339 -1347Q339 -1300 307 -1266Q275 -1232 226 -1232Z"/><path id="r10" d="M126 0V-1020Q126 -1020 126 -1020Q126 -1020 126 -1020H288Q288 -1020 288 -1020Q288 -1020 288 -1020V-840L261 -870H294Q338 -948 431 -1000Q524 -1052 626 -1052Q806 -1052 905 -947Q1004 -842 1004 -654V0Q1004 0 1004 0Q1004 0 1004 0H834Q834 0 834 0Q834 0 834 0V-628Q834 -762 770 -830Q706 -898 580 -898Q460 -898 378 -802Q296 -706 296 -574V0Q296 0 296 0Q296 0 296 0H126Q126 0 126 0Q126 0 126 0Z"/><path id="r11" d="M126 0Q126 0 126 0Q126 0 126 0V-1432Q126 -1432 126 -1432Q126 -1432 126 -1432H296Q296 -1432 296 -1432Q296 -1432 296 -1432V0Q296 0 296 0Q296 0 296 0Z"/><path id="r13" d="M496 32Q314 32 216 -75Q118 -182 118 -378V-1020Q118 -1020 118 -1020Q118 -1020 118 -1020H288Q288 -1020 288 -1020Q288 -1020 288 -1020V-404Q288 -266 351 -194Q414 -122 532 -122Q656 -122 741 -217Q826 -312 826 -444V-1020Q826 -1020 826 -1020Q826 -1020 826 -1020H996Q996 -1020 996 -1020Q996 -1020 996 -1020V0Q996 0 996 0Q996 0 996 0H834Q834 0 834 0Q834 0 834 0V-225L911 -148H828Q784 -70 691 -19Q598 32 496 32Z"/><path id="r14" d="M56 -866Q56 -866 56 -866Q56 -866 56 -866V-1020Q56 -1020 56 -1020Q56 -1020 56 -1020H676Q676 -1020 676 -1020Q676 -1020 676 -1020V-866Q676 -866 676 -866Q676 -866 676 -866ZM244 0Q244 0 244 0Q244 0 244 0V-1145Q244 -1287 336 -1375Q428 -1463 570 -1463Q608 -1463 644 -1458Q679 -1454 720 -1443Q720 -1443 720 -1443Q720 -1443 720 -1443V-1284Q720 -1284 720 -1284Q720 -1284 720 -1284Q679 -1295 645 -1300Q611 -1305 576 -1305Q506 -1305 460 -1261Q414 -1217 414 -1137V-985V-946V0Q414 0 414 0Q414 0 414 0Z"/><path id="r15" d="M596 32Q370 32 221 -123Q72 -278 72 -511Q72 -748 222 -900Q371 -1052 596 -1052Q820 -1052 970 -898Q1120 -745 1120 -511Q1120 -278 972 -123Q823 32 596 32ZM596 -122Q746 -122 848 -231Q950 -340 950 -511Q950 -685 847 -792Q744 -898 596 -898Q446 -898 344 -791Q241 -684 241 -511Q241 -340 342 -231Q444 -122 596 -122Z"/><path id="r16" d="M126 432Q126 432 126 432Q126 432 126 432V-1020Q126 -1020 126 -1020Q126 -1020 126 -1020H288Q288 -1020 288 -1020Q288 -1020 288 -1020V-818L248 -868H294Q342 -950 438 -1001Q534 -1052 644 -1052Q851 -1052 992 -902Q1132 -751 1132 -511Q1132 -276 993 -122Q854 32 644 32Q534 32 440 -14Q345 -59 302 -138H296V432Q296 432 296 432Q296 432 296 432ZM626 -122Q768 -122 865 -232Q962 -342 962 -511Q962 -684 864 -791Q766 -898 626 -898Q486 -898 387 -791Q288 -684 288 -511Q288 -342 386 -232Q484 -122 626 -122Z"/><path id="r17" d="M574 464Q412 464 294 389Q176 314 122 185Q122 185 122 185Q122 185 122 185L262 114Q262 114 262 114Q262 114 262 114Q311 212 388 261Q464 310 574 310Q728 310 816 221Q905 132 905 -59V-156H899Q847 -74 754 -27Q662 20 550 20Q346 20 209 -132Q72 -284 72 -519Q72 -748 210 -900Q348 -1052 550 -1052Q660 -1052 754 -1004Q848 -956 900 -874H946L906 -824V-1020Q906 -1020 906 -1020Q906 -1020 906 -1020H1068Q1068 -1020 1068 -1020Q1068 -1020 1068 -1020V-70Q1068 194 941 329Q814 464 574 464ZM574 -134Q718 -134 812 -240Q906 -346 906 -522Q906 -694 812 -796Q718 -898 574 -898Q431 -898 336 -793Q240 -688 240 -519Q240 -344 334 -239Q428 -134 574 -134Z"/><path id="r18" d="M207 432Q207 432 207 432Q207 432 207 432L464 -128L470 0L13 -1020Q13 -1020 13 -1020Q13 -1020 13 -1020H197Q197 -1020 197 -1020Q197 -1020 197 -1020L493 -332L518 -262H524L551 -334L829 -1020Q829 -1020 829 -1020Q829 -1020 829 -1020H1012Q1012 -1020 1012 -1020Q1012 -1020 1012 -1020L384 432Q384 432 384 432Q384 432 384 432Z"/><path id="r19" d="M588 32Q364 32 218 -122Q72 -276 72 -515Q72 -753 220 -902Q367 -1052 588 -1052Q741 -1052 852 -981Q963 -910 1024 -770Q1024 -770 1024 -770Q1024 -770 1024 -770L875 -706Q875 -706 875 -706Q875 -706 875 -706Q829 -806 756 -852Q684 -898 580 -898Q440 -898 340 -793Q240 -688 240 -515Q240 -342 339 -232Q438 -122 580 -122Q686 -122 762 -170Q838 -218 886 -317Q886 -317 886 -317Q886 -317 886 -317L1031 -245Q1031 -245 1031 -245Q1031 -245 1031 -245Q958 -101 847 -34Q736 32 588 32Z"/><path id="r20" d="M339 0Q339 0 339 0Q339 0 339 0L15 -1020Q15 -1020 15 -1020Q15 -1020 15 -1020H190Q190 -1020 190 -1020Q190 -1020 190 -1020L403 -305L430 -214H436L463 -298L691 -1020Q691 -1020 691 -1020Q691 -1020 691 -1020H866Q866 -1020 866 -1020Q866 -1020 866 -1020L1094 -304L1122 -216H1128L1154 -302L1368 -1020Q1368 -1020 1368 -1020Q1368 -1020 1368 -1020H1540Q1540 -1020 1540 -1020Q1540 -1020 1540 -1020L1211 0Q1211 0 1211 0Q1211 0 1211 0H1036Q1036 0 1036 0Q1036 0 1036 0L798 -739L778 -811H772L750 -739L515 0Q515 0 515 0Q515 0 515 0Z"/><path id="r21" d="M190 -208V-426L774 -1020Q774 -1020 774 -1020Q774 -1020 774 -1020H998Q998 -1020 998 -1020Q998 -1020 998 -1020ZM126 0Q126 0 126 0Q126 0 126 0V-1432Q126 -1432 126 -1432Q126 -1432 126 -1432H296Q296 -1432 296 -1432Q296 -1432 296 -1432V0Q296 0 296 0Q296 0 296 0ZM800 0Q800 0 800 0Q800 0 800 0L432 -548L552 -666L1017 0Q1017 0 1017 0Q1017 0 1017 0Z"/><path id="r22" d="M-15 464Q-58 464 -88 460Q-119 456 -165 445Q-165 445 -165 445Q-165 445 -165 445V287Q-165 287 -165 287Q-165 287 -165 287Q-122 299 -92 304Q-61 310 -29 310Q51 310 96 264Q141 219 141 138V-1020Q141 -1020 141 -1020Q141 -1020 141 -1020H311Q311 -1020 311 -1020Q311 -1020 311 -1020V147Q311 287 220 376Q129 464 -15 464ZM228 -1232Q181 -1232 147 -1266Q113 -1300 113 -1347Q113 -1396 147 -1428Q181 -1460 228 -1460Q277 -1460 309 -1428Q341 -1396 341 -1347Q341 -1300 309 -1266Q277 -1232 228 -1232Z"/><path id="r23" d="M425 0Q425 0 425 0Q425 0 425 0L13 -1020Q13 -1020 13 -1020Q13 -1020 13 -1020H196Q196 -1020 196 -1020Q196 -1020 196 -1020L489 -258L511 -200H517L541 -260L836 -1020Q836 -1020 836 -1020Q836 -1020 836 -1020H1014Q1014 -1020 1014 -1020Q1014 -1020 1014 -1020L599 0Q599 0 599 0Q599 0 599 0Z"/></defs><path fill="#faf2f2" d="M28 0H407A28 28 0 0 1 435 28V213A28 28 0 0 1 407 241H28A28 28 0 0 1 0 213V28A28 28 0 0 1 28 0Z"/><path fill="#008737" d="M76.0 50.0L75.7 51.7L74.5 53.2L73.3 54.6L72.7 56.1L72.5 57.6L72.9 59.5L73.1 61.4L72.5 63.0L71.4 64.3L69.7 65.1L67.8 65.7L66.6 66.6L65.7 67.8L65.1 69.7L64.3 71.4L63.0 72.5L61.4 73.1L59.5 72.9L57.6 72.5L56.1 72.7L54.6 73.3L53.2 74.5L51.7 75.7L50.0 76.0L48.3 75.7L46.8 74.5L45.4 73.3L43.9 72.7L42.4 72.5L40.5 72.9L38.6 73.1L37.0 72.5L35.7 71.4L34.9 69.7L34.3 67.8L33.4 66.6L32.2 65.7L30.3 65.1L28.6 64.3L27.5 63.0L26.9 61.4L27.1 59.5L27.5 57.6L27.3 56.1L26.7 54.6L25.5 53.2L24.3 51.7L24.0 50.0L24.3 48.3L25.5 46.8L26.7 45.4L27.3 43.9L27.5 42.4L27.1 40.5L26.9 38.6L27.5 37.0L28.6 35.7L30.3 34.9L32.2 34.3L33.4 33.4L34.3 32.2L34.9 30.3L35.7 28.6L37.0 27.5L38.6 26.9L40.5 27.1L42.4 27.5L43.9 27.3L45.4 26.7L46.8 25.5L48.3 24.3L50.0 24.0L51.7 24.3L53.2 25.5L54.6 26.7L56.1 27.3L57.6 27.5L59.5 27.1L61.4 26.9L63.0 27.5L64.3 28.6L65.1 30.3L65.7 32.2L66.6 33.4L67.8 34.3L69.7 34.9L71.4 35.7L72.5 37.0L73.1 38.6L72.9 40.5L72.5 42.4L72.7 43.9L73.3 45.4L74.5 46.8L75.7 48.3Z"/><path fill="#f7fff2" transform="translate(38.0 62.0) scale(0.02500)" d="M160-160q-33 0-56.5-23.5T80-240v-480q0-33 23.5-56.5T160-800h640q33 0 56.5 23.5T880-720v480q0 33-23.5 56.5T800-160H160Zm0-80h640v-400H160v400Zm187-200-76-76q-12-12-11.5-28t12.5-28q12-11 28-11.5t28 11.5l104 104q12 12 12 28t-12 28L328-308q-11 11-27.5 11.5T272-308q-11-11-11-28t11-28l75-76Zm173 160q-17 0-28.5-11.5T480-320q0-17 11.5-28.5T520-360h160q17 0 28.5 11.5T720-320q0 17-11.5 28.5T680-280H520Z"/><path fill="#4d4446" transform="translate(387.0 62.0) scale(0.02500)" d="M200-120q-33 0-56.5-23.5T120-200v-560q0-33 23.5-56.5T200-840h240q17 0 28.5 11.5T480-800q0 17-11.5 28.5T440-760H200v560h560v-240q0-17 11.5-28.5T800-480q17 0 28.5 11.5T840-440v240q0 33-23.5 56.5T760-120H200Zm560-584L416-360q-11 11-28 11t-28-11q-11-11-11-28t11-28l344-344H600q-17 0-28.5-11.5T560-800q0-17 11.5-28.5T600-840h200q17 0 28.5 11.5T840-800v200q0 17-11.5 28.5T800-560q-17 0-28.5-11.5T760-600v-104Z"/><g fill="#1e1b1b" transform="translate(24.0 122.0) scale(0.01200)"><use href="#r0" x="0"/><use href="#r1" x="1184"/><use href="#r2" x="2290"/><use href="#r3" x="3340"/><use href="#r4" x="5070"/><use href="#r5" x="5725"/><use href="#r6" x="6648"/><use href="#r2" x="7750"/><use href="#r7" x="8800"/><use href="#r1" x="9478"/></g><g fill="#4d4446" transform="translate(24.0 148.0) scale(0.00720)"><use href="#r8" x="0"/><use href="#r1" x="730"/><use href="#r7" x="1856"/><use href="#r3" x="2606"/><use href="#r9" x="4356"/><use href="#r10" x="4808"/><use href="#r2" x="5930"/><use href="#r11" x="7000"/><use href="#r13" x="7872"/><use href="#r9" x="8994"/><use href="#r14" x="9896"/><use href="#r15" x="10580"/><use href="#r7" x="11772"/><use href="#r16" x="12972"/><use href="#r1" x="14176"/><use href="#r1" x="15302"/><use href="#r7" x="16428"/><use href="#r4" x="17178"/><use href="#r8" x="17877"/><use href="#r15" x="18607"/><use href="#r4" x="19799"/><use href="#r16" x="20474"/><use href="#r1" x="21678"/><use href="#r1" x="22804"/><use href="#r7" x="23930"/><use href="#r14" x="25130"/><use href="#r9" x="25888"/><use href="#r11" x="26340"/><use href="#r1" x="26762"/><use href="#r5" x="28338"/><use href="#r6" x="29281"/><use href="#r2" x="30403"/><use href="#r7" x="31473"/><use href="#r9" x="32223"/><use href="#r10" x="32675"/><use href="#r17" x="33797"/><use href="#r15" x="35441"/><use href="#r10" x="36633"/><use href="#r18" x="38205"/><use href="#r15" x="39181"/><use href="#r13" x="40373"/><use href="#r7" x="41495"/><use href="#r11" x="42695"/><use href="#r15" x="43117"/><use href="#r19" x="44309"/><use href="#r2" x="45394"/><use href="#r11" x="46464"/></g><g fill="#4d4446" transform="translate(24.0 169.0) scale(0.00720)"><use href="#r10" x="0"/><use href="#r1" x="1122"/><use href="#r8" x="2248"/><use href="#r20" x="2978"/><use href="#r15" x="4499"/><use href="#r7" x="5691"/><use href="#r21" x="6441"/></g><rect x="24.5" y="185.5" width="86.8" height="31" rx="8" fill="none" stroke="#d0c3c5"/><g fill="#4d4446" transform="translate(38.0 206.0) scale(0.00688)"><use href="#r22" x="0"/><use href="#r2" x="452"/><use href="#r23" x="1470"/><use href="#r2" x="2462"/><use href="#r5" x="3532"/><use href="#r19" x="4475"/><use href="#r7" x="5560"/><use href="#r9" x="6310"/><use href="#r16" x="6762"/><use href="#r8" x="7966"/></g></svg>
